<?xml version="1.0" encoding="UTF-8"?>
<svg width="168px" height="119px" viewBox="0 0 168 119" version="1.1" xmlns="http://www.w3.org/2000/svg" xmlns:xlink="http://www.w3.org/1999/xlink">
    <!-- Generator: Sketch 46.2 (44496) - http://www.bohemiancoding.com/sketch -->
    <title>Page 1</title>
    <desc>Created with Sketch.</desc>
    <defs></defs>
    <g id="Platform-UI-Flow-Hi-Fi" stroke="none" stroke-width="1" fill="none" fill-rule="evenodd" fill-opacity="0.5">
        <g id="Manage-Environment:-Policies:-None" transform="translate(-636.000000, -304.000000)" fill="#8C9BA5">
            <g id="Page-1" transform="translate(636.500000, 304.632812)">
                <path d="M42.2917137,82.5586815 C39.8832586,91.7955179 31.4846405,98.6137849 21.4930284,98.6137849 C9.62269489,98.6137849 0.000252856183,88.9913428 0.000252856183,77.1210093 C0.000252856183,67.9398013 5.75652386,60.1025239 13.858036,57.0239999 L57.7829477,35.0305691 L42.2917137,82.5586815 Z" id="Fill-1"></path>
                <path d="M124.593367,82.5586815 C127.001822,91.7955179 135.40044,98.6137849 145.392052,98.6137849 C157.262386,98.6137849 166.884828,88.9913428 166.884828,77.1210093 C166.884828,67.9398013 161.128557,60.1025239 153.027045,57.0239999 L109.102133,35.0305691 L124.593367,82.5586815 Z" id="Fill-3"></path>
                <path d="M60.8183598,104.935316 C65.4911421,112.521001 73.8745888,117.578125 83.4426668,117.578125 C93.0094804,117.578125 101.394191,112.522266 106.066974,104.935316 L60.8183598,104.935316 Z M56.8927676,78.3854167 L56.8927676,91.0383401 C56.8927676,91.4580813 56.9028818,91.8765583 56.921846,92.2925067 L109.963487,92.2925067 C109.982452,91.8765583 109.992566,91.4580813 109.992566,91.0383401 L109.992566,78.3854167 L56.8927676,78.3854167 Z M60.0863411,39.1927083 C64.5783312,30.9078755 73.3537051,25.2856183 83.4426668,25.2856183 C93.5328927,25.2856183 102.305738,30.9104041 106.797728,39.1927083 L60.0863411,39.1927083 Z M56.8927676,65.7426075 L109.992566,65.7426075 L109.992566,51.8355175 L56.8927676,51.8355175 L56.8927676,65.7426075 Z" id="Fill-5"></path>
                <path d="M70.7997312,0 C77.7823547,0 83.4425403,5.66018565 83.4425403,12.6428091 C83.4425403,19.6254326 77.7823547,25.2856183 70.7997312,25.2856183 C63.8171077,25.2856183 58.156922,19.6254326 58.156922,12.6428091 C58.156922,5.66018565 63.8171077,0 70.7997312,0" id="Fill-7"></path>
                <path d="M97.3496304,0 C104.332254,0 109.99244,5.66018565 109.99244,12.6428091 C109.99244,19.6254326 104.332254,25.2856183 97.3496304,25.2856183 C90.3670069,25.2856183 84.7068212,19.6254326 84.7068212,12.6428091 C84.7068212,5.66018565 90.3670069,0 97.3496304,0" id="Fill-9"></path>
            </g>
        </g>
    </g>
</svg>
