<?xml version="1.0" encoding="utf-8"?>
<svg xmlns="http://www.w3.org/2000/svg" xmlns:xlink="http://www.w3.org/1999/xlink">
    <symbol viewBox="0 0 32 32" id="refresh">
       <path d="M 16 4 C 10.886719 4 6.617188 7.160156 4.875 11.625 L 6.71875 12.375 C 8.175781 8.640625 11.710938 6 16 6 C 19.242188 6 22.132813 7.589844 23.9375 10 L 20 10 L 20 12 L 27 12 L 27 5 L 25 5 L 25 8.09375 C 22.808594 5.582031 19.570313 4 16 4 Z M 25.28125 19.625 C 23.824219 23.359375 20.289063 26 16 26 C 12.722656 26 9.84375 24.386719 8.03125 22 L 12 22 L 12 20 L 5 20 L 5 27 L 7 27 L 7 23.90625 C 9.1875 26.386719 12.394531 28 16 28 C 21.113281 28 25.382813 24.839844 27.125 20.375 Z "/>
    </symbol>
    <symbol viewBox="0 0 12 12" id="filter">
        <path d="M12,2.14285714 L9.81394286,2.14285714 C9.61051572,1.14489327 8.73275066,0.428003074 7.71426429,0.428003074 C6.69577792,0.428003074 5.81801285,1.14489327 5.61458571,2.14285714 L0,2.14285714 L0,3 L5.61462857,3 C5.81805571,3.99796387 6.69582077,4.71485407 7.71430714,4.71485407 C8.73279351,4.71485407 9.61055858,3.99796387 9.81398571,3 L12,3 L12,2.14285714 Z M7.71428571,3.85714286 C7.00420532,3.85714286 6.42857143,3.28150896 6.42857143,2.57142857 C6.42857143,1.86134818 7.00420532,1.28571429 7.71428571,1.28571429 C8.42436611,1.28571429 9,1.86134818 9,2.57142857 C8.99919698,3.28117608 8.42403322,3.85633984 7.71428571,3.85714286 Z M12,9 L6.38537143,9 C6.18194429,8.00203613 5.30417923,7.28514593 4.28569286,7.28514593 C3.26720649,7.28514593 2.38944142,8.00203613 2.18601429,9 L0,9 L0,9.85714286 L2.18605714,9.85714286 C2.38948428,10.8551067 3.26724934,11.5719969 4.28573571,11.5719969 C5.30422208,11.5719969 6.18198715,10.8551067 6.38541429,9.85714286 L12,9.85714286 L12,9 Z M4.28571429,10.7142857 C3.57563389,10.7142857 3,10.1386518 3,9.42857143 C3,8.71849104 3.57563389,8.14285714 4.28571429,8.14285714 C4.99579468,8.14285714 5.57142857,8.71849104 5.57142857,9.42857143 C5.57062556,10.1383189 4.99546179,10.7134827 4.28571429,10.7142857 Z"></path>
    </symbol>
    <symbol viewBox="0 0 12 12" id="autoRefresh">
        <path d="M8.33703191,2.28461538 L6.50516317,0.553494162 L7.02821674,3.11581538e-14 L9.9,2.71384343 L7.02748392,5.41285697 L6.50601674,4.85786795 L8.43419451,3.04615385 L4.95,3.04615385 C2.63677657,3.04615385 0.761538462,4.92139195 0.761538462,7.23461538 C0.761538462,9.54783882 2.63677657,11.4230769 4.95,11.4230769 C7.26322343,11.4230769 9.13846154,9.54783882 9.13846154,7.23461538 L9.9,7.23461538 C9.9,9.9684249 7.68380951,12.1846154 4.95,12.1846154 C2.21619049,12.1846154 0,9.9684249 0,7.23461538 C-1.77635684e-15,4.50080587 2.21619049,2.28461538 4.95,2.28461538 L8.33703191,2.28461538 Z" id="restart"></path>
    </symbol>
    <symbol viewBox="0 0 16 16" id="info">
        <path d="M8,14.5 C11.5898509,14.5 14.5,11.5898509 14.5,8 C14.5,4.41014913 11.5898509,1.5 8,1.5 C4.41014913,1.5 1.5,4.41014913 1.5,8 C1.5,11.5898509 4.41014913,14.5 8,14.5 Z M8,16 C3.581722,16 0,12.418278 0,8 C0,3.581722 3.581722,0 8,0 C12.418278,0 16,3.581722 16,8 C16,12.418278 12.418278,16 8,16 Z"></path>
        <polygon id="Path-21" fill-rule="nonzero" points="9 13 7 13 7 7 9 7"></polygon>
        <circle id="Oval-8" fill-rule="evenodd" cx="8" cy="4" r="1"></circle>
    </symbol>
    <symbol viewBox="-4 -4 16 16" id="close">
      <path d="M9.8 8.6L8.4 10 5 6.4 1.4 10 0 8.6 3.6 5 .1 1.4 1.5 0 5 3.6 8.6 0 10 1.4 6.4 5z"/>
    </symbol>
    <symbol viewBox="0 0 18 18" id="next">
      <g stroke="none" stroke-width="1" fill="none" fill-rule="evenodd">
        <g transform="translate(-1255.000000, -215.000000)" fill="#EDEDED">
          <path d="M1264,216.5 C1268.14214,216.5 1271.5,219.857864 1271.5,224 C1271.5,228.142136 1268.14214,231.5 1264,231.5 C1259.85786,231.5 1256.5,228.142136 1256.5,224 C1256.5,219.857864 1259.85786,216.5 1264,216.5 L1264,216.5 Z M1264,215.25 C1259.16751,215.25 1255.25,219.167508 1255.25,224 C1255.25,228.832492 1259.16751,232.75 1264,232.75 C1268.83249,232.75 1272.75,228.832492 1272.75,224 C1272.75,219.167508 1268.83249,215.25 1264,215.25 Z M1260.35502,224.334055 L1265.91465,224.334055 L1263.00667,227.242032 L1263.89056,228.125915 L1268.30997,223.706498 L1263.89498,219.2915 L1263.00225,220.166545 L1265.91907,223.08336 L1260.35944,223.08336 L1260.35502,224.334055 L1260.35502,224.334055 Z" id="Fill"></path>
        </g>
      </g>
    </symbol>
    <symbol viewBox="0 0 18 18" id="previous">
      <g stroke="none" stroke-width="1" fill="none" fill-rule="evenodd">
          <g transform="translate(-1225.000000, -215.000000)" fill="#EDEDED">
              <path d="M1234,216.5 C1238.14214,216.5 1241.5,219.857864 1241.5,224 C1241.5,228.142136 1238.14214,231.5 1234,231.5 C1229.85786,231.5 1226.5,228.142136 1226.5,224 C1226.5,219.857864 1229.85786,216.5 1234,216.5 L1234,216.5 Z M1234,215.25 C1229.16751,215.25 1225.25,219.167508 1225.25,224 C1225.25,228.832492 1229.16751,232.75 1234,232.75 C1238.83249,232.75 1242.75,228.832492 1242.75,224 C1242.75,219.167508 1238.83249,215.25 1234,215.25 Z M1230.35502,224.334055 L1235.91465,224.334055 L1233.00667,227.242032 L1233.89056,228.125915 L1238.30997,223.706498 L1233.89498,219.2915 L1233.00225,220.166545 L1235.91907,223.08336 L1230.35944,223.08336 L1230.35502,224.334055 L1230.35502,224.334055 Z" id="Fill" transform="translate(1234.000000, 224.000000) scale(-1, 1) translate(-1234.000000, -224.000000) "></path>
          </g>
      </g>
    </symbol>
    <symbol viewBox="0 0 18 12" id="undo">
      <g stroke="none" stroke-width="1" fill="none" fill-rule="evenodd">
          <g transform="translate(-827.000000, -218.000000)" fill="#EDEDED">
              <g transform="translate(827.000000, 218.000000)">
                  <path d="M14,5.3 C15.5,5.3 16.8,6.6 16.8,8 C16.8,9.5 15.5,10.7 14,10.7 L10,10.7 L10,12 L14,12 C16.3,12 18,10.3 18,8 C18,5.8 16.2,4 14,4 L2.4,4 L4.9,1.5 L4,0.6 L0,4.6 L4,8.6 L4.9,7.7 L2.4,5.3 L14,5.3 Z" id="Fill"></path>
              </g>
          </g>
      </g>
    </symbol>
    <symbol viewBox="0 0 18 12" id="redo">
      <g stroke="none" stroke-width="1" fill="none" fill-rule="evenodd">
          <g transform="translate(-857.000000, -218.000000)" fill="#EDEDED">
              <g transform="translate(857.000000, 218.000000)">
                  <path d="M4,5.3 C2.5,5.3 1.2,6.6 1.2,8 C1.2,9.5 2.5,10.7 4,10.7 L8,10.7 L8,12 L4,12 C1.7,12 0,10.3 0,8 C0,5.8 1.8,4 4,4 L15.6,4 L13.1,1.5 L14,0.6 L18,4.6 L14,8.6 L13.1,7.7 L15.6,5.2 L4,5.2 L4,5.3 Z" id="Fill"></path>
              </g>
          </g>
      </g>
    </symbol>
    <symbol viewBox="0 0 32 32" id="deploy">
      <path d="M30.853 8l-6.707-6.707L17.439 8l1.414 1.414 4.293-4.293v13.586c0 5.514-4.486 10-10 10s-10-4.486-10-10a9.934 9.934 0 0 1 2.929-7.071l-1.414-1.414a11.92 11.92 0 0 0-3.515 8.485c0 6.617 5.383 12 12 12s12-5.383 12-12V5.121l4.293 4.293L30.853 8z"/>
      <circle cx="13.146" cy="18.707" r="3"/>
    </symbol>
    <symbol viewBox="0 0 16 16" id="success">
      <circle cx="8" cy="8" r="8" fill="white" fill-opacity="1"/>
      <path d="M8 0C3.6 0 0 3.6 0 8s3.6 8 8 8 8-3.6 8-8-3.6-8-8-8zM6.7 11.5L3.4 8.1l1.4-1.4 1.9 1.9 4.1-4.1 1.4 1.4-5.5 5.6z"/>
    </symbol>
    <symbol viewBox="0 0 16 16" id="warning">
      <circle cx="8" cy="8" r="8" fill="white" fill-opacity="1"/>
      <path d="M8 1L0 15h16L8 1zm-.8 5h1.5v1.4L8.3 11h-.8l-.4-3.6V6h.1zm.8 8c-.6 0-1-.4-1-1s.4-1 1-1 1 .4 1 1-.4 1-1 1z"/>
    </symbol>
    <symbol viewBox="0 0 16 16" id="failure">
      <g>
        <circle cx="8" cy="8" r="8" fill="white" fill-opacity="1"/>
        <path d="M8 0C3.6 0 0 3.6 0 8s3.6 8 8 8 8-3.6 8-8-3.6-8-8-8zM5.1 13.3L3.5 12 11 2.6l1.5 1.2-7.4 9.5z"/>
      </g>
    </symbol>
</svg>