<?xml version="1.0" encoding="utf-8"?>
<svg xmlns="http://www.w3.org/2000/svg" xmlns:xlink="http://www.w3.org/1999/xlink">
    <symbol viewBox="0 0 32 32" id="refresh">
       <path d="M 16 4 C 10.886719 4 6.617188 7.160156 4.875 11.625 L 6.71875 12.375 C 8.175781 8.640625 11.710938 6 16 6 C 19.242188 6 22.132813 7.589844 23.9375 10 L 20 10 L 20 12 L 27 12 L 27 5 L 25 5 L 25 8.09375 C 22.808594 5.582031 19.570313 4 16 4 Z M 25.28125 19.625 C 23.824219 23.359375 20.289063 26 16 26 C 12.722656 26 9.84375 24.386719 8.03125 22 L 12 22 L 12 20 L 5 20 L 5 27 L 7 27 L 7 23.90625 C 9.1875 26.386719 12.394531 28 16 28 C 21.113281 28 25.382813 24.839844 27.125 20.375 Z "/>
    </symbol>
    <symbol viewBox="0 0 12 12" id="filter">
        <path d="M12,2.14285714 L9.81394286,2.14285714 C9.61051572,1.14489327 8.73275066,0.428003074 7.71426429,0.428003074 C6.69577792,0.428003074 5.81801285,1.14489327 5.61458571,2.14285714 L0,2.14285714 L0,3 L5.61462857,3 C5.81805571,3.99796387 6.69582077,4.71485407 7.71430714,4.71485407 C8.73279351,4.71485407 9.61055858,3.99796387 9.81398571,3 L12,3 L12,2.14285714 Z M7.71428571,3.85714286 C7.00420532,3.85714286 6.42857143,3.28150896 6.42857143,2.57142857 C6.42857143,1.86134818 7.00420532,1.28571429 7.71428571,1.28571429 C8.42436611,1.28571429 9,1.86134818 9,2.57142857 C8.99919698,3.28117608 8.42403322,3.85633984 7.71428571,3.85714286 Z M12,9 L6.38537143,9 C6.18194429,8.00203613 5.30417923,7.28514593 4.28569286,7.28514593 C3.26720649,7.28514593 2.38944142,8.00203613 2.18601429,9 L0,9 L0,9.85714286 L2.18605714,9.85714286 C2.38948428,10.8551067 3.26724934,11.5719969 4.28573571,11.5719969 C5.30422208,11.5719969 6.18198715,10.8551067 6.38541429,9.85714286 L12,9.85714286 L12,9 Z M4.28571429,10.7142857 C3.57563389,10.7142857 3,10.1386518 3,9.42857143 C3,8.71849104 3.57563389,8.14285714 4.28571429,8.14285714 C4.99579468,8.14285714 5.57142857,8.71849104 5.57142857,9.42857143 C5.57062556,10.1383189 4.99546179,10.7134827 4.28571429,10.7142857 Z"></path>
    </symbol>
    <symbol viewBox="0 0 12 12" id="autoRefresh">
        <path d="M8.33703191,2.28461538 L6.50516317,0.553494162 L7.02821674,3.11581538e-14 L9.9,2.71384343 L7.02748392,5.41285697 L6.50601674,4.85786795 L8.43419451,3.04615385 L4.95,3.04615385 C2.63677657,3.04615385 0.761538462,4.92139195 0.761538462,7.23461538 C0.761538462,9.54783882 2.63677657,11.4230769 4.95,11.4230769 C7.26322343,11.4230769 9.13846154,9.54783882 9.13846154,7.23461538 L9.9,7.23461538 C9.9,9.9684249 7.68380951,12.1846154 4.95,12.1846154 C2.21619049,12.1846154 0,9.9684249 0,7.23461538 C-1.77635684e-15,4.50080587 2.21619049,2.28461538 4.95,2.28461538 L8.33703191,2.28461538 Z" id="restart"></path>
    </symbol>
    <symbol viewBox="0 0 16 16" id="info">
        <path d="M8,14.5 C11.5898509,14.5 14.5,11.5898509 14.5,8 C14.5,4.41014913 11.5898509,1.5 8,1.5 C4.41014913,1.5 1.5,4.41014913 1.5,8 C1.5,11.5898509 4.41014913,14.5 8,14.5 Z M8,16 C3.581722,16 0,12.418278 0,8 C0,3.581722 3.581722,0 8,0 C12.418278,0 16,3.581722 16,8 C16,12.418278 12.418278,16 8,16 Z"></path>
        <polygon id="Path-21" fill-rule="nonzero" points="9 13 7 13 7 7 9 7"></polygon>
        <circle id="Oval-8" fill-rule="evenodd" cx="8" cy="4" r="1"></circle>
    </symbol>
</svg>