<svg xmlns="http://www.w3.org/2000/svg" width="202px" height="18px" viewBox="0 0 479.65 41.13"><defs><style>.cls-1{fill:#fff;}</style></defs><title>Asset 69</title><g id="Layer_2" data-name="Layer 2"><g id="Layer_1-2" data-name="Layer 1"><path class="cls-1" d="M0,32V29H4.21v-24H0v-3H12v3H7.81V29H12v3Z"/><path class="cls-1" d="M18.59,2.06H30.92c4.93,0,8,3.05,8,7.73,0,4.47-2.87,6.05-4.85,6.36v.25c2.15.13,5.88,2,5.88,7S36.63,32,32.2,32H18.59ZM22.2,15h8.29c2.83,0,4.55-1.5,4.55-4.17V9.4c0-2.66-1.72-4.16-4.55-4.16H22.2Zm0,13.82h8.89c3.09,0,5-1.63,5-4.63V22.76c0-3-1.89-4.64-5-4.64H22.2Z"/><path class="cls-1" d="M46.63,2.06h4.81L60,18.21h.22L68.88,2.06h4.63V32H70V6.78h-.21l-2.54,5L60.07,24.86l-7.17-13-2.53-5h-.21V32H46.63Z"/><path class="cls-1" d="M91.16,2.06h6.4l7.69,14.64h.17L113,2.06h6.14V32h-5.37V10.52h-.17l-2.32,4.77-6.14,11.33L99,15.29,96.7,10.52h-.17V32H91.16Z"/><path class="cls-1" d="M139.26,28.3H139a6.08,6.08,0,0,1-6.27,4.25c-4.59,0-7.17-3.18-7.17-8.76V9.62h5.5V23.23c0,3.09,1.16,4.77,3.78,4.77,2.19,0,4.38-1.16,4.38-3.57V9.62h5.49V32h-5.49Z"/><path class="cls-1" d="M156.61,32c-3.74,0-5.5-2-5.5-5.41V.26h5.5V27.65h3V32Z"/><path class="cls-1" d="M164.72,26.32V14h-3.3V9.62h1.71c1.63,0,2.15-.77,2.15-2.32V3.48h4.94V9.62h4.59V14h-4.59V27.65h4.25V32h-3.95C166.74,32,164.72,30,164.72,26.32Z"/><path class="cls-1" d="M179.11,3.61V2.75c0-1.59.94-2.75,3.22-2.75s3.22,1.16,3.22,2.75v.86c0,1.59-1,2.75-3.22,2.75S179.11,5.2,179.11,3.61Zm.47,6h5.5V32h-5.5Z"/><path class="cls-1" d="M189.93,20.78c0-7.17,3.73-11.68,10.34-11.68,4.51,0,7.48,2.15,8.81,5.67l-4.51,2a4.19,4.19,0,0,0-4.3-3.26c-3,0-4.59,2.14-4.59,5.28v4.08c0,3.13,1.55,5.23,4.59,5.23,2.62,0,3.91-1.5,4.73-3.52l4.21,2c-1.46,3.95-4.6,5.93-8.94,5.93C193.66,32.55,189.93,28,189.93,20.78Z"/><path class="cls-1" d="M219,32c-3.73,0-5.49-2-5.49-5.41V.26H219V27.65h3V32Z"/><path class="cls-1" d="M224.58,20.78c0-7.17,4-11.68,10.39-11.68s10.44,4.51,10.44,11.68-4,11.77-10.44,11.77S224.58,28,224.58,20.78Zm15.07,2.11V18.72c0-3.35-1.8-5.19-4.68-5.19s-4.64,1.84-4.64,5.19v4.17c0,3.39,1.81,5.23,4.64,5.23S239.65,26.28,239.65,22.89Z"/><path class="cls-1" d="M263.65,28.3h-.21a6.08,6.08,0,0,1-6.27,4.25c-4.59,0-7.17-3.18-7.17-8.76V9.62h5.5V23.23c0,3.09,1.16,4.77,3.77,4.77,2.19,0,4.38-1.16,4.38-3.57V9.62h5.5V32h-5.5Z"/><path class="cls-1" d="M289.42,28.3h-.21A6.31,6.31,0,0,1,283,32.55c-5.62,0-8.76-4.25-8.76-11.77S277.4,9.1,283,9.1a6.2,6.2,0,0,1,6.19,4.21h.21V.26h5.5V32h-5.5Zm0-3.95V17.22c0-2.19-2-3.61-4.64-3.61-2.83,0-4.76,2.11-4.76,5.28v3.87C280,25.93,282,28,284.78,28,287.4,28,289.42,26.67,289.42,24.35Z"/><path class="cls-1" d="M311.75,2.06h6.4l7.68,14.64H326l7.6-14.64h6.14V32h-5.36V10.52h-.17l-2.32,4.77-6.14,11.33-6.14-11.33-2.32-4.77h-.17V32h-5.37Z"/><path class="cls-1" d="M344.86,25.93c0-4.59,3.47-6.87,9.57-6.87h3.82V17.43c0-2.49-1.24-3.95-4.16-3.95A5.82,5.82,0,0,0,349,16.32l-3.27-2.92c1.64-2.58,4.26-4.3,8.76-4.3,6.06,0,9.28,2.88,9.28,8V27.65H366V32h-3.05c-2.36,0-3.82-1.54-4.16-3.86h-.26c-.73,2.87-3.18,4.38-6.53,4.38C347.43,32.55,344.86,29.93,344.86,25.93Zm13.39-.6v-3h-3.52c-2.87,0-4.29,1-4.29,2.75v.73c0,1.8,1.24,2.7,3.39,2.7C356.28,28.55,358.25,27.44,358.25,25.33Z"/><path class="cls-1" d="M370.45,32V9.62H376v3.73h.21a6.19,6.19,0,0,1,6.27-4.25c4.59,0,7.17,3.18,7.17,8.76V32h-5.5V18.42c0-3.18-1.07-4.81-3.69-4.81-2.28,0-4.46,1.2-4.46,3.61V32Z"/><path class="cls-1" d="M394.11,25.93c0-4.59,3.48-6.87,9.57-6.87h3.83V17.43c0-2.49-1.25-3.95-4.17-3.95a5.82,5.82,0,0,0-5.11,2.84L395,13.4c1.63-2.58,4.25-4.3,8.76-4.3,6,0,9.27,2.88,9.27,8V27.65h2.23V32h-3c-2.37,0-3.83-1.54-4.17-3.86h-.26c-.73,2.87-3.17,4.38-6.52,4.38C396.69,32.55,394.11,29.93,394.11,25.93Zm13.4-.6v-3H404c-2.88,0-4.3,1-4.3,2.75v.73c0,1.8,1.25,2.7,3.39,2.7C405.53,28.55,407.51,27.44,407.51,25.33Z"/><path class="cls-1" d="M428.16,41.13c-7.56,0-10.43-2-10.43-5.28,0-2.49,1.5-3.9,4-4.29v-.47a3.68,3.68,0,0,1-2.88-3.74c0-2.32,2-3.48,4.12-4v-.17a6.77,6.77,0,0,1-4.07-6.53c0-4.55,3.22-7.6,9.27-7.6a12.65,12.65,0,0,1,3.91.56V8.93c0-2.19,1.11-3.26,3.18-3.26h3.47V9.88H434v.6a6.71,6.71,0,0,1,3.48,6.22c0,4.51-3.18,7.52-9.28,7.52a13.55,13.55,0,0,1-3.43-.39,2.3,2.3,0,0,0-1.59,2c0,1.12.94,1.67,2.92,1.67h6c5.49,0,7.86,2.37,7.86,6.4C439.93,38.6,436.75,41.13,428.16,41.13ZM431,32.29h-7.64a2.75,2.75,0,0,0-1.16,2.32c0,1.72,1.29,2.75,4.72,2.75h2.75c3.56,0,5.15-.9,5.15-2.79C434.77,33.15,433.74,32.29,431,32.29Zm1.25-15.24v-.73c0-2.28-1.42-3.44-4-3.44s-4,1.16-4,3.44v.73c0,2.23,1.42,3.43,4,3.43S432.2,19.28,432.2,17.05Z"/><path class="cls-1" d="M441.34,20.78c0-7.08,3.83-11.68,10.4-11.68,7,0,10.22,5.16,10.22,11.3v1.8h-14.9v.56c0,3.22,1.84,5.41,5.45,5.41a6.81,6.81,0,0,0,5.71-3.05l3,3.31c-1.84,2.53-5.11,4.12-9.27,4.12C445.29,32.55,441.34,28,441.34,20.78Zm5.72-2.32v.35h9.18v-.39c0-3.09-1.58-5.19-4.42-5.19S447.06,15.37,447.06,18.46Z"/><path class="cls-1" d="M466.81,32V9.62h5.49v4.64h.22a5.74,5.74,0,0,1,5.92-4.64h1.21v5.19h-1.72c-3.69,0-5.63,1-5.63,3.48V32Z"/></g></g></svg>
