<?xml version="1.0" encoding="UTF-8"?>
<svg width="261px" height="261px" viewBox="0 0 261 261" version="1.1" xmlns="http://www.w3.org/2000/svg" xmlns:xlink="http://www.w3.org/1999/xlink">
    <!-- Generator: Sketch 56.3 (81716) - https://sketch.com -->
    <title>Group 101</title>
    <desc>Created with Sketch.</desc>
    <defs>
        <polygon id="path-1" points="0 0.155949533 260.84462 0.155949533 260.84462 260.999837 0 260.999837"></polygon>
        <path d="M0.714527778,1.251 L28.5295556,1.251 L0.714527778,1.251 Z" id="path-3"></path>
        <path d="M0.896,69.4180233 L0.896,0.777325581 L0.896,69.4180233 Z" id="path-5"></path>
        <path d="M1.11,69.4180233 L1.11,0.777325581 L1.11,69.4180233 Z" id="path-7"></path>
        <path d="M1.337,69.4180233 L1.337,0.777325581 L1.337,69.4180233 Z" id="path-9"></path>
        <path d="M1.434,69.4180233 L1.434,0.777325581 L1.434,69.4180233 Z" id="path-11"></path>
        <path d="M1.416,49.4139344 L1.416,0.490983607 L1.416,49.4139344 Z" id="path-13"></path>
        <path d="M1.451,49.4139344 L1.451,0.490983607 L1.451,49.4139344 Z" id="path-15"></path>
        <path d="M0.799,16.4211905 L0.799,0.68647619 L0.799,16.4211905 Z" id="path-17"></path>
        <path d="M0.987,16.4211905 L0.987,0.68647619 L0.987,16.4211905 Z" id="path-19"></path>
        <path d="M0.718857143,1.251 L16.5264286,1.251 L0.718857143,1.251 Z" id="path-21"></path>
        <path d="M0.262312195,0.921 L166.41102,0.921 L0.262312195,0.921 Z" id="path-23"></path>
        <path d="M0.1032,0.921 L7.4216,0.921 L0.1032,0.921 Z" id="path-25"></path>
        <path d="M0.430540541,0.921 L59.5832432,0.921 L0.430540541,0.921 Z" id="path-27"></path>
    </defs>
    <g id="Hi-Fi" stroke="none" stroke-width="1" fill="none" fill-rule="evenodd">
        <g id="Blank" transform="translate(-705.000000, -191.000000)">
            <g id="Group-101" transform="translate(705.000000, 191.000000)">
                <g id="Group-14">
                    <g id="Group-3">
                        <mask id="mask-2" fill="white">
                            <use xlink:href="#path-1"></use>
                        </mask>
                        <g id="Clip-2"></g>
                        <path d="M260.84462,130.577893 C260.84462,202.608202 202.452984,260.999837 130.422676,260.999837 C58.3923673,260.999837 -8.13084112e-05,202.608202 -8.13084112e-05,130.577893 C-8.13084112e-05,58.547585 58.3923673,0.155949533 130.422676,0.155949533 C202.452984,0.155949533 260.84462,58.547585 260.84462,130.577893" id="Fill-1" fill="#F5F7FA" mask="url(#mask-2)"></path>
                    </g>
                    <path d="M211.946798,204.953624 L50.2633963,204.953624 C48.0599383,204.953624 46.2735925,203.167279 46.2735925,200.963821 L46.2735925,65.2397551 C46.2735925,63.0354841 48.0599383,61.2491383 50.2633963,61.2491383 L211.946798,61.2491383 C214.150256,61.2491383 215.937415,63.0354841 215.937415,65.2397551 L215.937415,200.963821 C215.937415,203.167279 214.150256,204.953624 211.946798,204.953624" id="Fill-4" fill="#FFFFFF"></path>
                    <path d="M211.946798,204.953624 L50.2633963,204.953624 C48.0599383,204.953624 46.2735925,203.167279 46.2735925,200.963821 L46.2735925,65.2397551 C46.2735925,63.0354841 48.0599383,61.2491383 50.2633963,61.2491383 L211.946798,61.2491383 C214.150256,61.2491383 215.937415,63.0354841 215.937415,65.2397551 L215.937415,200.963821 C215.937415,203.167279 214.150256,204.953624 211.946798,204.953624 Z" id="Stroke-6" stroke="#89959F" stroke-width="4" stroke-linecap="round" stroke-linejoin="round"></path>
                    <path d="M215.937171,90.6874991 L46.2733486,90.6874991 L46.2733486,65.2395925 C46.2733486,63.0353215 48.0596944,61.2489757 50.2639654,61.2489757 L211.946554,61.2489757 C214.150825,61.2489757 215.937171,63.0353215 215.937171,65.2395925 L215.937171,90.6874991 Z" id="Fill-10" fill="#FFFFFF"></path>
                    <path d="M115.321264,203.441044 C113.787788,203.441044 112.543769,203.710175 112.543769,202.175885 L171.5,61.2489757 C171.5,59.714686 172.680791,61.2489757 174.215081,61.2489757 L213.159676,62.8956594 C214.693965,62.8956594 214.825685,61.3621828 214.825685,62.8956594 L214.825685,203.288184 C214.825685,204.821661 214.693965,203.441044 213.159676,203.441044 L115.321264,203.441044 Z" id="Fill-8" fill="#F5F7FA"></path>
                    <path d="M215.937171,90.6874991 L46.2733486,90.6874991 L46.2733486,65.2395925 C46.2733486,63.0353215 48.0596944,61.2489757 50.2639654,61.2489757 L211.946554,61.2489757 C214.150825,61.2489757 215.937171,63.0353215 215.937171,65.2395925 L215.937171,90.6874991 Z" id="Stroke-12" stroke="#89959F" stroke-width="3" stroke-linecap="round" stroke-linejoin="round"></path>
                </g>
                <rect id="Rectangle" fill="#F5F7FA" x="42" y="200" width="176" height="11"></rect>
                <g id="Group-17" transform="translate(60.000000, 75.000000)">
                    <mask id="mask-4" fill="white">
                        <use xlink:href="#path-3"></use>
                    </mask>
                    <g id="Clip-16"></g>
                    <path d="M0.714527778,1.251 L28.5295556,1.251 L0.714527778,1.251 Z" id="Fill-15" mask="url(#mask-4)"></path>
                </g>
                <path d="M61,76.5 L89,76.5" id="Stroke-18" stroke="#89959F" stroke-width="4" stroke-linecap="round" stroke-linejoin="round"></path>
                <g id="Group-22" transform="translate(71.000000, 115.000000)">
                    <mask id="mask-6" fill="white">
                        <use xlink:href="#path-5"></use>
                    </mask>
                    <g id="Clip-21"></g>
                    <path d="M0.896,69.4180233 L0.896,0.777325581 L0.896,69.4180233 Z" id="Fill-20" mask="url(#mask-6)"></path>
                </g>
                <path d="M71.5,116 L71.5,185" id="Stroke-23" stroke="#89959F" stroke-width="4" stroke-linecap="round" stroke-linejoin="round"></path>
                <g id="Group-27" transform="translate(116.000000, 115.000000)">
                    <mask id="mask-8" fill="white">
                        <use xlink:href="#path-7"></use>
                    </mask>
                    <g id="Clip-26"></g>
                    <path d="M1.11,69.4180233 L1.11,0.777325581 L1.11,69.4180233 Z" id="Fill-25" mask="url(#mask-8)"></path>
                </g>
                <path d="M121.5,116 L121.5,185" id="Stroke-28" stroke="#89959F" stroke-width="4" stroke-linecap="round" stroke-linejoin="round"></path>
                <g id="Group-32" transform="translate(169.000000, 115.000000)">
                    <mask id="mask-10" fill="white">
                        <use xlink:href="#path-9"></use>
                    </mask>
                    <g id="Clip-31"></g>
                    <path d="M1.337,69.4180233 L1.337,0.777325581 L1.337,69.4180233 Z" id="Fill-30" mask="url(#mask-10)"></path>
                </g>
                <path d="M171.5,116 L171.5,185" id="Stroke-33" stroke="#89959F" stroke-width="4" stroke-linecap="round" stroke-linejoin="round"></path>
                <g id="Group-37" transform="translate(131.000000, 115.000000)">
                    <mask id="mask-12" fill="white">
                        <use xlink:href="#path-11"></use>
                    </mask>
                    <g id="Clip-36"></g>
                    <path d="M1.434,69.4180233 L1.434,0.777325581 L1.434,69.4180233 Z" id="Fill-35" mask="url(#mask-12)"></path>
                </g>
                <path d="M137.5,116 L137.5,185" id="Stroke-38" stroke="#89959F" stroke-width="4" stroke-linecap="round" stroke-linejoin="round"></path>
                <g id="Group-42" transform="translate(88.000000, 135.000000)">
                    <mask id="mask-14" fill="white">
                        <use xlink:href="#path-13"></use>
                    </mask>
                    <g id="Clip-41"></g>
                    <path d="M1.416,49.4139344 L1.416,0.490983607 L1.416,49.4139344 Z" id="Fill-40" mask="url(#mask-14)"></path>
                </g>
                <path d="M88.5,135 L88.5,184" id="Stroke-43" stroke="#89959F" stroke-width="4" stroke-linecap="round" stroke-linejoin="round"></path>
                <g id="Group-47" transform="translate(150.000000, 135.000000)">
                    <mask id="mask-16" fill="white">
                        <use xlink:href="#path-15"></use>
                    </mask>
                    <g id="Clip-46"></g>
                    <path d="M1.451,49.4139344 L1.451,0.490983607 L1.451,49.4139344 Z" id="Fill-45" mask="url(#mask-16)"></path>
                </g>
                <path d="M154.5,135 L154.5,184" id="Stroke-48" stroke="#89959F" stroke-width="4" stroke-linecap="round" stroke-linejoin="round"></path>
                <g id="Group-52" transform="translate(98.000000, 168.000000)">
                    <mask id="mask-18" fill="white">
                        <use xlink:href="#path-17"></use>
                    </mask>
                    <g id="Clip-51"></g>
                    <path d="M0.799,16.4211905 L0.799,0.68647619 L0.799,16.4211905 Z" id="Fill-50" mask="url(#mask-18)"></path>
                </g>
                <path d="M104.5,169 L104.5,185" id="Stroke-53" stroke="#89959F" stroke-width="4" stroke-linecap="round" stroke-linejoin="round"></path>
                <g id="Group-57" transform="translate(187.000000, 168.000000)">
                    <mask id="mask-20" fill="white">
                        <use xlink:href="#path-19"></use>
                    </mask>
                    <g id="Clip-56"></g>
                    <path d="M0.987,16.4211905 L0.987,0.68647619 L0.987,16.4211905 Z" id="Fill-55" mask="url(#mask-20)"></path>
                </g>
                <path d="M187.5,169 L187.5,185" id="Stroke-58" stroke="#89959F" stroke-width="4" stroke-linecap="round" stroke-linejoin="round"></path>
                <g id="Group-62" transform="translate(96.000000, 75.000000)">
                    <mask id="mask-22" fill="white">
                        <use xlink:href="#path-21"></use>
                    </mask>
                    <g id="Clip-61"></g>
                    <path d="M0.718857143,1.251 L16.5264286,1.251 L0.718857143,1.251 Z" id="Fill-60" mask="url(#mask-22)"></path>
                </g>
                <g id="Group-85" transform="translate(79.000000, 25.000000)">
                    <path d="M18,51.4070352 L33.8788283,51.4070352" id="Stroke-63" stroke="#89959F" stroke-width="4" stroke-linecap="round" stroke-linejoin="round"></path>
                    <path d="M111.805758,51.9054171 C111.805758,53.5107638 110.505561,54.8116482 108.902879,54.8116482 C107.299384,54.8116482 106,53.5107638 106,51.9054171 C106,50.3000704 107.299384,49 108.902879,49 C110.505561,49 111.805758,50.3000704 111.805758,51.9054171" id="Fill-65" fill="#89959F"></path>
                    <path d="M123.805758,51.9054171 C123.805758,53.5107638 122.505561,54.8116482 120.902879,54.8116482 C119.299384,54.8116482 118,53.5107638 118,51.9054171 C118,50.3000704 119.299384,49 120.902879,49 C122.505561,49 123.805758,50.3000704 123.805758,51.9054171" id="Fill-65-Copy" fill="#89959F"></path>
                    <path d="M6.87608232,9.80393065 L8.15595101,11.8537598 C8.76254697,12.8257598 9.58218333,13.6463427 10.5530621,14.2536392 L12.5997136,15.5341719 C12.7777894,15.6456995 12.7777894,15.9053879 12.5997136,16.0177296 L10.5530621,17.2982623 C9.58218333,17.9055588 8.76254697,18.7261417 8.15595101,19.6981417 L6.87608232,21.7479709 C6.76468333,21.9262523 6.50529444,21.9262523 6.39389545,21.7479709 L5.11402677,19.6981417 C4.50743081,18.7261417 3.68779444,17.9055588 2.71691566,17.2982623 L0.670264141,16.0177296 C0.492188384,15.9053879 0.492188384,15.6456995 0.670264141,15.5341719 L2.71691566,14.2536392 C3.68779444,13.6463427 4.50743081,12.8257598 5.11402677,11.8537598 L6.39389545,9.80393065 C6.50529444,9.62564925 6.76468333,9.62564925 6.87608232,9.80393065" id="Fill-79" fill="#8B97A1"></path>
                    <path d="M54.1254354,3.2770402 C54.1254354,5.07532161 52.6691172,6.53332161 50.8729101,6.53332161 C49.076703,6.53332161 47.6203848,5.07532161 47.6203848,3.2770402 C47.6203848,1.47794472 49.076703,0.020758794 50.8729101,0.020758794 C52.6691172,0.020758794 54.1254354,1.47794472 54.1254354,3.2770402" id="Fill-81" fill="#8B97A1"></path>
                    <path d="M103.942088,19.7389266 C103.942088,21.0878412 102.850053,22.1811377 101.502694,22.1811377 C100.155335,22.1811377 99.0633,21.0878412 99.0633,19.7389266 C99.0633,18.3900121 100.155335,17.2967156 101.502694,17.2967156 C102.850053,17.2967156 103.942088,18.3900121 103.942088,19.7389266" id="Fill-83" fill="#8B97A1"></path>
                </g>
                <g id="Group-88" transform="translate(73.000000, 204.000000)">
                    <mask id="mask-24" fill="white">
                        <use xlink:href="#path-23"></use>
                    </mask>
                    <g id="Clip-87"></g>
                    <path d="M0.262312195,0.921 L166.41102,0.921 L0.262312195,0.921 Z" id="Fill-86" mask="url(#mask-24)"></path>
                </g>
                <path d="M28,201.5 L193.221303,201.5" id="Stroke-89" stroke="#89959F" stroke-width="4" stroke-linecap="round" stroke-linejoin="round"></path>
                <g id="Group-93" transform="translate(246.000000, 204.000000)">
                    <mask id="mask-26" fill="white">
                        <use xlink:href="#path-25"></use>
                    </mask>
                    <g id="Clip-92"></g>
                    <path d="M0.1032,0.921 L7.4216,0.921 L0.1032,0.921 Z" id="Fill-91" mask="url(#mask-26)"></path>
                </g>
                <path d="M203,201.5 L246,201.5" id="Stroke-94" stroke="#89959F" stroke-width="4" stroke-linecap="round" stroke-linejoin="round"></path>
                <g id="Group-98" transform="translate(7.000000, 204.000000)">
                    <mask id="mask-28" fill="white">
                        <use xlink:href="#path-27"></use>
                    </mask>
                    <g id="Clip-97"></g>
                    <path d="M0.430540541,0.921 L59.5832432,0.921 L0.430540541,0.921 Z" id="Fill-96" mask="url(#mask-28)"></path>
                </g>
                <path d="M17,201.5 L21,201.5" id="Stroke-99" stroke="#89959F" stroke-width="4" stroke-linecap="round" stroke-linejoin="round"></path>
            </g>
        </g>
    </g>
</svg>