<?xml version="1.0" encoding="UTF-8"?>
<svg width="65px" height="65px" viewBox="0 0 65 65" version="1.1" xmlns="http://www.w3.org/2000/svg" xmlns:xlink="http://www.w3.org/1999/xlink">
    <!-- Generator: sketchtool 55.2 (78181) - https://sketchapp.com -->
    <title>6B8AB9A9-F813-4655-9172-CC224F624B7C</title>
    <desc>Created with sketchtool.</desc>
    <defs>
        <circle id="path-1" cx="32.4933004" cy="32.4933004" r="32.4933004"></circle>
        <linearGradient x1="-11.259595%" y1="50%" x2="132.40072%" y2="55.6108955%" id="linearGradient-3">
            <stop stop-color="#FCFCFC" offset="0%"></stop>
            <stop stop-color="#DCDEDE" offset="100%"></stop>
        </linearGradient>
        <path d="M41.9531363,14.6961226 L49.6305815,14.6961226 C51.3131325,14.6961226 51.523221,13.4245937 51.5103209,12.7196241 C51.4830007,12.56858 51.4688187,12.4154469 51.4679346,12.2619476 C51.4689519,10.820465 52.636151,9.65245259 54.0756122,9.65245295 L69.4065452,9.65245295 C70.354375,9.62721368 71.241194,10.1191625 71.7225343,10.9372113 C72.2038746,11.7552601 72.2038746,12.7704805 71.7225343,13.5885293 C71.241194,14.4065781 70.354375,14.8985269 69.4065452,14.8732877 L66.8744258,14.8732877 C65.8691263,15.2602761 65.2054676,16.2270869 65.2047749,17.3056172 L65.2047749,17.3056172 C65.2047749,18.7478205 66.372272,19.9169573 67.8124526,19.9169573 L75.4769976,19.9169573 C76.1684272,19.9164676 76.831705,20.1911795 77.3207925,20.6806078 C77.80988,21.170036 78.0846753,21.834051 78.0846753,22.5264519 L78.0846753,22.5264519 C78.0846753,23.9686552 76.9171782,25.137792 75.4769976,25.137792 L48.5303811,25.137792 C47.0906218,25.1367742 45.9237199,23.9682334 45.9227035,22.5264519 L45.9227035,22.5264519 C45.9240105,22.2289127 45.9757311,21.9337533 46.0756627,21.6535446 L46.0756627,21.6535446 C46.0756627,21.6535446 46.0756627,19.9169573 44.0116352,19.9169573 L41.9531363,19.9169573 C40.5136754,19.9159386 39.3473015,18.7471001 39.3473015,17.3056172 L39.3473015,17.3056172 C39.3473015,15.8644331 40.5139735,14.6961226 41.9531363,14.6961226 L41.9531363,14.6961226 Z" id="path-4"></path>
        <filter x="-14.2%" y="-22.6%" width="128.4%" height="171.0%" filterUnits="objectBoundingBox" id="filter-5">
            <feOffset dx="0" dy="2" in="SourceAlpha" result="shadowOffsetOuter1"></feOffset>
            <feGaussianBlur stdDeviation="1.5" in="shadowOffsetOuter1" result="shadowBlurOuter1"></feGaussianBlur>
            <feColorMatrix values="0 0 0 0 0.535948822   0 0 0 0 0.535948822   0 0 0 0 0.535948822  0 0 0 0.18 0" type="matrix" in="shadowBlurOuter1"></feColorMatrix>
        </filter>
        <linearGradient x1="14.6374046%" y1="84.8475431%" x2="85.3530534%" y2="15.1524569%" id="linearGradient-6">
            <stop stop-color="#AEAFAF" offset="0%"></stop>
            <stop stop-color="#D1D3D4" offset="100%"></stop>
        </linearGradient>
        <linearGradient x1="14.6374046%" y1="85.3530532%" x2="85.3530534%" y2="14.6469468%" id="linearGradient-7">
            <stop stop-color="#AEAFAF" offset="0%"></stop>
            <stop stop-color="#D1D3D4" offset="100%"></stop>
        </linearGradient>
        <linearGradient x1="14.6374046%" y1="84.4040213%" x2="85.3530534%" y2="15.5959787%" id="linearGradient-8">
            <stop stop-color="#F1F2F2" offset="0%"></stop>
            <stop stop-color="#D1D3D4" offset="100%"></stop>
        </linearGradient>
        <linearGradient x1="0.329519206%" y1="49.9995258%" x2="100%" y2="56.3439903%" id="linearGradient-9">
            <stop stop-color="#FCFCFC" offset="0%"></stop>
            <stop stop-color="#E9EAEB" offset="100%"></stop>
        </linearGradient>
        <path d="M2.65000144,17.6048453 L10.4575729,17.6048453 C12.1686417,17.6048453 12.382291,16.3117651 12.3691722,15.5948469 C12.341389,15.4412427 12.3269666,15.2855141 12.3260675,15.1294131 C12.3271021,13.6634986 13.5140842,12.4756894 14.9779431,12.4756897 L30.5687224,12.4756897 C31.5326171,12.4500227 32.4344669,12.9503097 32.9239655,13.7822237 C33.4134641,14.6141378 33.4134641,15.6465652 32.9239655,16.4784792 C32.4344669,17.3103933 31.5326171,17.8106803 30.5687224,17.7850132 L27.9936857,17.7850132 C26.9713472,18.1785607 26.2964401,19.1617582 26.2957357,20.2585686 L26.2957357,20.2585686 C26.2957357,21.7252161 27.4830208,22.9141687 28.9476112,22.9141687 L36.7420638,22.9141687 C37.4452126,22.9136708 38.1197324,23.1930388 38.6171095,23.6907625 C39.1144865,24.1884861 39.3939394,24.8637556 39.3939394,25.5678921 L39.3939394,25.5678921 C39.3939394,27.0345395 38.2066543,28.2234922 36.7420638,28.2234922 L9.33872502,28.2234922 C7.87456296,28.2224571 6.68788311,27.0341106 6.68684947,25.5678921 L6.68684947,25.5678921 C6.68817859,25.2653099 6.74077588,24.9651477 6.84240118,24.6801897 L6.84240118,24.6801897 C6.84240118,24.6801897 6.84240118,22.9141687 4.74339013,22.9141687 L2.65000144,22.9141687 C1.18614295,22.9131328 0,21.7244835 0,20.2585686 L0,20.2585686 C0,18.7929577 1.18644606,17.6048453 2.65000144,17.6048453 L2.65000144,17.6048453 Z" id="path-10"></path>
        <filter x="-14.0%" y="-22.2%" width="127.9%" height="169.8%" filterUnits="objectBoundingBox" id="filter-11">
            <feOffset dx="0" dy="2" in="SourceAlpha" result="shadowOffsetOuter1"></feOffset>
            <feGaussianBlur stdDeviation="1.5" in="shadowOffsetOuter1" result="shadowBlurOuter1"></feGaussianBlur>
            <feColorMatrix values="0 0 0 0 0.535948822   0 0 0 0 0.535948822   0 0 0 0 0.535948822  0 0 0 0.2 0" type="matrix" in="shadowBlurOuter1"></feColorMatrix>
        </filter>
        <linearGradient x1="14.6374046%" y1="85.3530618%" x2="85.3530534%" y2="14.6469382%" id="linearGradient-12">
            <stop stop-color="#4E4F4F" offset="0%"></stop>
            <stop stop-color="#D1D3D4" offset="100%"></stop>
        </linearGradient>
        <linearGradient x1="14.6374046%" y1="84.8475431%" x2="85.3530534%" y2="15.1524569%" id="linearGradient-13">
            <stop stop-color="#AEAFAF" offset="0%"></stop>
            <stop stop-color="#D1D3D4" offset="100%"></stop>
        </linearGradient>
    </defs>
    <g id="Hi-Fi" stroke="none" stroke-width="1" fill="none" fill-rule="evenodd">
        <g id="Empty-state-overview" transform="translate(-87.000000, -719.000000)">
            <g id="moonandflag" transform="translate(87.000000, 719.000000)">
                <g id="Mask" fill="#F5F7FA" fill-rule="nonzero">
                    <circle id="path-1" cx="32.5" cy="32.5" r="32.5"></circle>
                </g>
                <g id="Clipped">
                    <mask id="mask-2" fill="white">
                        <use xlink:href="#path-1"></use>
                    </mask>
                    <g id="path-1"></g>
                    <g id="Path" fill-rule="nonzero" mask="url(#mask-2)">
                        <use fill="black" fill-opacity="1" filter="url(#filter-5)" xlink:href="#path-4"></use>
                        <use fill="url(#linearGradient-3)" xlink:href="#path-4"></use>
                    </g>
                    <g id="Group" mask="url(#mask-2)">
                        <g transform="translate(-10.538976, 5.316030)" id="Group-5-Copy">
                            <g transform="translate(0.000000, 0.356198)">
                                <g id="Group-5" fill-rule="nonzero">
                                    <path d="M68.5430796,27.9276649 L68.8627039,28.4361156 C69.0138869,28.6763436 69.2182192,28.8792098 69.4601834,29.029308 L69.9723087,29.346639 C69.9928978,29.3595137 70.0053887,29.3819804 70.0053887,29.4061385 C70.0053887,29.4302966 69.9928978,29.4527633 69.9723087,29.465638 L69.4601834,29.782969 C69.2182192,29.9330673 69.0138869,30.1359334 68.8627039,30.3761615 L68.5430796,30.8846122 C68.5301118,30.9050536 68.5074827,30.9174548 68.48315,30.9174548 C68.4588174,30.9174548 68.4361883,30.9050536 68.4232205,30.8846122 L68.1035962,30.3761615 C67.9524131,30.1359334 67.7480808,29.9330673 67.5061167,29.782969 L66.9939914,29.465638 C66.9734022,29.4527633 66.9609114,29.4302966 66.9609114,29.4061385 C66.9609114,29.3819804 66.9734022,29.3595137 66.9939914,29.346639 L67.5061167,29.029308 C67.7480808,28.8792098 67.9524131,28.6763436 68.1035962,28.4361156 L68.4232205,27.9276649 C68.4361883,27.9072234 68.4588174,27.8948222 68.48315,27.8948222 C68.5074827,27.8948222 68.5301118,27.9072234 68.5430796,27.9276649 Z" id="Path-Copy-14" fill-opacity="0.5" fill="url(#linearGradient-6)"></path>
                                    <path d="M50.4526384,0.923279545 L50.8662154,1.5859428 C51.0618384,1.89903171 51.3262337,2.16342701 51.6393226,2.35904995 L52.3019858,2.77262701 C52.3286271,2.78940669 52.3447896,2.81868753 52.3447896,2.85017272 C52.3447896,2.88165789 52.3286271,2.91093875 52.3019858,2.9277184 L51.6393226,3.34129549 C51.3262337,3.5369184 51.0618384,3.80131371 50.8662154,4.11440262 L50.4526384,4.77706589 C50.4358587,4.80370719 50.4065778,4.81986968 50.3750927,4.81986968 C50.3436075,4.81986968 50.3143266,4.80370719 50.297547,4.77706589 L49.8839699,4.11440262 C49.688347,3.80131371 49.4239517,3.5369184 49.1108627,3.34129549 L48.4481995,2.9277184 C48.4215582,2.91093875 48.4053957,2.88165789 48.4053957,2.85017272 C48.4053957,2.81868753 48.4215582,2.78940669 48.4481995,2.77262701 L49.1108627,2.35904995 C49.4239517,2.16342701 49.688347,1.89903171 49.8839699,1.5859428 L50.297547,0.923279545 C50.3143266,0.896638229 50.3436075,0.880475739 50.3750927,0.880475739 C50.4065778,0.880475739 50.4358587,0.896638229 50.4526384,0.923279545 Z" id="Path-Copy-14" fill-opacity="0.5" fill="url(#linearGradient-7)"></path>
                                    <path d="M40.7587678,15.129546 L41.0344859,15.5713215 C41.1649012,15.7800474 41.3411647,15.956311 41.5498906,16.0867262 L41.9916662,16.3624443 C42.009427,16.3736307 42.020202,16.3931513 42.020202,16.4141414 C42.020202,16.4351315 42.009427,16.4546521 41.9916662,16.4658385 L41.5498906,16.7415566 C41.3411647,16.8719719 41.1649012,17.0482354 41.0344859,17.2569614 L40.7587678,17.6987369 C40.7475814,17.7164977 40.7280608,17.7272727 40.7070707,17.7272727 C40.6860806,17.7272727 40.66656,17.7164977 40.6553736,17.6987369 L40.3796555,17.2569614 C40.2492402,17.0482354 40.0729767,16.8719719 39.8642508,16.7415566 L39.4224753,16.4658385 C39.4047144,16.4546521 39.3939394,16.4351315 39.3939394,16.4141414 C39.3939394,16.3931513 39.4047144,16.3736307 39.4224753,16.3624443 L39.8642508,16.0867262 C40.0729767,15.956311 40.2492402,15.7800474 40.3796555,15.5713215 L40.6553736,15.129546 C40.66656,15.1117851 40.6860806,15.1010101 40.7070707,15.1010101 C40.7280608,15.1010101 40.7475814,15.1117851 40.7587678,15.129546 Z" id="Path-Copy-14" fill-opacity="0.5" fill="url(#linearGradient-7)"></path>
                                    <path d="M19.800364,21.7237384 L20.3518001,22.6072894 C20.6126306,23.0247413 20.9651577,23.3772684 21.3826096,23.6380989 L22.2661606,24.189535 C22.3016823,24.2119079 22.3232323,24.2509491 22.3232323,24.2929293 C22.3232323,24.3349095 22.3016823,24.3739507 22.2661606,24.3963236 L21.3826096,24.9477597 C20.9651577,25.2085902 20.6126306,25.5611173 20.3518001,25.9785692 L19.800364,26.8621202 C19.7779911,26.8976419 19.7389499,26.9191919 19.6969697,26.9191919 C19.6549895,26.9191919 19.6159483,26.8976419 19.5935754,26.8621202 L19.0421393,25.9785692 C18.7813088,25.5611173 18.4287817,25.2085902 18.0113298,24.9477597 L17.1277788,24.3963236 C17.0922571,24.3739507 17.0707071,24.3349095 17.0707071,24.2929293 C17.0707071,24.2509491 17.0922571,24.2119079 17.1277788,24.189535 L18.0113298,23.6380989 C18.4287817,23.3772684 18.7813088,23.0247413 19.0421393,22.6072894 L19.5935754,21.7237384 C19.6159483,21.6882167 19.6549895,21.6666667 19.6969697,21.6666667 C19.7389499,21.6666667 19.7779911,21.6882167 19.800364,21.7237384 Z" id="Path-Copy-14" fill-opacity="0.5" fill="url(#linearGradient-7)"></path>
                                    <ellipse id="Oval-Copy-10" fill="#D8D8D8" cx="24.5959369" cy="20.6099206" rx="1" ry="1"></ellipse>
                                    <ellipse id="Oval-Copy-10" fill="#D8D8D8" cx="45.9920874" cy="1.08719114" rx="1" ry="1"></ellipse>
                                    <ellipse id="Oval-Copy-10" fill="#D8D8D8" cx="65.2327937" cy="26.0972774" rx="1" ry="1"></ellipse>
                                    <g id="Group" transform="translate(0.263371, 22.248197)">
                                        <g id="Group-10" transform="translate(0.621161, 0.133877)">
                                            <path d="M61.6495073,37.6745682 C69.2325976,26.757581 66.4087075,11.8433768 55.3421724,4.36276088 C44.2756372,-3.11785502 29.1571289,-0.332125593 21.5740388,10.5848617 C13.9909486,21.501849 16.8148387,36.4160533 27.8813739,43.8966692 C38.947909,51.3772851 54.0664174,48.5915557 61.6495073,37.6745682 Z" id="Oval-Copy-6" fill="url(#linearGradient-8)"></path>
                                            <g id="Path">
                                                <use fill="black" fill-opacity="1" filter="url(#filter-11)" xlink:href="#path-10"></use>
                                                <use fill="url(#linearGradient-9)" xlink:href="#path-10"></use>
                                            </g>
                                            <path d="M59.3390458,15.2622315 C59.3405686,17.3869912 58.0618183,19.3033815 56.0992341,20.1175489 C54.1366502,20.9317164 51.8768609,20.4832703 50.3738892,18.9813776 C48.8709179,17.4794848 48.4208493,15.2200174 49.233607,13.2568489 C50.0463646,11.2936804 51.9618358,10.0135534 54.0865956,10.0135534 C56.9859703,10.0135534 59.3369618,12.3628568 59.3390458,15.2622315 Z" id="Path-Copy-13" fill="url(#linearGradient-12)" opacity="0.298035714"></path>
                                            <path d="M45.9418163,10.8693792 C46.9583925,10.1097128 47.1666592,8.66978357 46.4069927,7.65320726 C45.6473264,6.63663096 44.2073972,6.42836433 43.1908209,7.18803073 C42.1742447,7.94769713 41.9659779,9.38762633 42.7256442,10.4042026 C43.4853107,11.4207789 44.92524,11.6290455 45.9418163,10.8693792 Z" id="Oval-Copy-7" fill="url(#linearGradient-12)" opacity="0.298035714"></path>
                                        </g>
                                    </g>
                                    <path d="M15.6599213,53.3903298 L16.2647293,54.4052134 C16.5700339,54.8922144 16.9838692,55.3031175 17.4743452,55.6062589 L18.4964707,56.2368079 C18.5370139,56.2635107 18.5613877,56.3086054 18.5613877,56.3569125 C18.5613877,56.4052197 18.5370139,56.4503143 18.4964707,56.4770172 L17.4743452,57.0775398 C16.9838692,57.3806813 16.5700339,57.7915847 16.2647293,58.2785857 L15.6599213,59.2934692 C15.6352048,59.3366842 15.5890117,59.3633832 15.5389597,59.3633832 C15.4889078,59.3633832 15.4427147,59.3366842 15.4179981,59.2934692 L14.7769017,58.2785857 C14.4721093,57.7911809 14.0581683,57.3801727 13.5672858,57.0775398 L12.5451603,56.4770172 C12.5016369,56.4524757 12.4747475,56.4066099 12.4747475,56.3569125 C12.4747475,56.3072152 12.5016369,56.2613493 12.5451603,56.2368079 L13.5672858,55.6062589 C14.0581683,55.303626 14.4721093,54.8926178 14.7769017,54.4052134 L15.4179981,53.3903298 C15.4427147,53.3471145 15.4889078,53.3204158 15.5389597,53.3204158 C15.5890117,53.3204158 15.6352048,53.3471145 15.6599213,53.3903298 Z" id="Path-Copy-11" fill="url(#linearGradient-13)"></path>
                                </g>
                            </g>
                        </g>
                    </g>
                </g>
            </g>
        </g>
    </g>
</svg>