<svg xmlns="http://www.w3.org/2000/svg" xmlns:xlink="http://www.w3.org/1999/xlink" viewBox="0 0 326.84 326.84"><defs><style>.cls-1,.cls-10{isolation:isolate;}.cls-2{fill:url(#linear-gradient);}.cls-13,.cls-3,.cls-4,.cls-5,.cls-6,.cls-9{stroke:#2e3f8f;}.cls-12,.cls-13,.cls-3,.cls-4,.cls-5,.cls-6,.cls-9{stroke-linecap:round;stroke-linejoin:round;}.cls-12,.cls-13,.cls-15,.cls-3,.cls-4,.cls-5,.cls-6,.cls-9{stroke-width:4px;}.cls-3{fill:url(#linear-gradient-2);}.cls-4{fill:#fff;}.cls-5{fill:url(#linear-gradient-3);}.cls-6{fill:url(#linear-gradient-4);}.cls-7{fill:#2e3f8f;}.cls-8{opacity:0.32;fill:url(#linear-gradient-5);}.cls-14,.cls-8{mix-blend-mode:multiply;}.cls-9{fill:url(#_2);}.cls-10{fill:#1a1818;opacity:0.1;}.cls-11{fill:#2e3192;}.cls-12,.cls-15{fill:none;}.cls-12{stroke:#fff;}.cls-13{fill:url(#_2-2);}.cls-14{opacity:0.38;fill:url(#_2-3);}.cls-15{stroke:#2e3192;stroke-miterlimit:10;}</style><linearGradient id="linear-gradient" x1="47.86" y1="278.97" x2="278.97" y2="47.86" gradientUnits="userSpaceOnUse"><stop offset="0" stop-color="#f6f3f3"/><stop offset="1" stop-color="#e7e9f7"/></linearGradient><linearGradient id="linear-gradient-2" x1="78.51" y1="261.98" x2="255.93" y2="84.56" gradientUnits="userSpaceOnUse"><stop offset="0" stop-color="#d1d7f4"/><stop offset="1" stop-color="#89a2f6"/></linearGradient><linearGradient id="linear-gradient-3" x1="26.2" y1="277.26" x2="292.27" y2="277.26" gradientUnits="userSpaceOnUse"><stop offset="0" stop-color="#d1d7f4"/><stop offset="1" stop-color="#f6f3f3"/></linearGradient><linearGradient id="linear-gradient-4" x1="301.13" y1="277.26" x2="310.27" y2="277.26" xlink:href="#linear-gradient-3"/><linearGradient id="linear-gradient-5" x1="74.76" y1="285.06" x2="252.18" y2="107.65" xlink:href="#linear-gradient-2"/><linearGradient id="_2" x1="74.76" y1="295.06" x2="252.18" y2="117.65" gradientUnits="userSpaceOnUse"><stop offset="0" stop-color="#d1d7f4"/><stop offset="1" stop-color="#f6f3f3"/></linearGradient><linearGradient id="_2-2" x1="134.9" y1="210" x2="204.54" y2="210" xlink:href="#_2"/><linearGradient id="_2-3" x1="195.32" y1="178.16" x2="229.83" y2="178.16" gradientTransform="translate(-22.17 27.74) rotate(1.2)" xlink:href="#_2"/></defs><title>Asset 74</title><g class="cls-1"><g id="Layer_2" data-name="Layer 2"><g id="Layer_1-2" data-name="Layer 1"><circle class="cls-2" cx="163.42" cy="163.42" r="163.42"/><rect class="cls-3" x="54.03" y="106.12" width="226.39" height="134.3" rx="5"/><rect class="cls-4" x="99.83" y="55.82" width="165.17" height="104.37" rx="5" transform="translate(25.89 -34.96) rotate(11.78)"/><rect class="cls-4" x="89.83" y="60.82" width="165.17" height="104.37" rx="5" transform="translate(4.52 -6.61) rotate(2.22)"/><rect class="cls-4" x="81.83" y="79.26" width="165.17" height="104.37" rx="5" transform="translate(-10.06 13.68) rotate(-4.62)"/><line class="cls-5" x1="26.2" y1="277.26" x2="292.27" y2="277.26"/><line class="cls-6" x1="301.13" y1="277.26" x2="310.27" y2="277.26"/><path class="cls-7" d="M58.43,66.57,60,69.09A9.31,9.31,0,0,0,63,72l2.52,1.58a.35.35,0,0,1,0,.59L63,75.77a9.44,9.44,0,0,0-3,3l-1.57,2.52a.35.35,0,0,1-.59,0l-1.58-2.52a9.31,9.31,0,0,0-2.94-3L50.8,74.2a.35.35,0,0,1,0-.59L53.32,72a9.17,9.17,0,0,0,2.94-2.94l1.58-2.52A.35.35,0,0,1,58.43,66.57Z"/><circle class="cls-7" cx="175.69" cy="28.77" r="4"/><circle class="cls-7" cx="232.73" cy="39.94" r="3"/><path class="cls-8" d="M275.42,267.26H59a5,5,0,0,1-5-5V123a5,5,0,0,1,5-5h29.8a5,5,0,0,1,3.4,1.33l13.31,12.33a5,5,0,0,0,3.39,1.34H275.42a5,5,0,0,1,5,5v124.3A5,5,0,0,1,275.42,267.26Z"/><path class="cls-9" d="M275.42,277.26H59a5,5,0,0,1-5-5V133a5,5,0,0,1,5-5h23.8a5,5,0,0,1,3.4,1.33l13.31,12.33a5,5,0,0,0,3.39,1.34H275.42a5,5,0,0,1,5,5v124.3A5,5,0,0,1,275.42,277.26Z"/><circle class="cls-10" cx="280.75" cy="227.38" r="28.62"/><circle class="cls-11" cx="281.08" cy="221.22" r="28.62"/><line class="cls-12" x1="281.08" y1="207.42" x2="281.08" y2="235.03"/><line class="cls-12" x1="267.28" y1="221.22" x2="294.89" y2="221.22"/><path class="cls-13" d="M145.12,231.2a31.57,31.57,0,0,1-10.21-23.92l.62-29.51,34.72-9.57,34.29,11-.62,29.5a31.56,31.56,0,0,1-11.21,23.48l-22.52,19a2.46,2.46,0,0,1-1.69.6,2.5,2.5,0,0,1-1.67-.67Z"/><path class="cls-14" d="M168.5,251.81l1.75-83.61c0-1,15.36,5.45,19.37,6.22l14.22,3.83c1,0-.93,25.46,0,36.41L192,233.83c-1.84-1.51-2.78,2.35-5.2,3.35-3.61,1.48-10.41,9.26-11.22,9.25"/><circle class="cls-15" cx="169.47" cy="205.58" r="17.26"/><polygon class="cls-11" points="166.08 210.5 160.8 205 158.44 207.26 165.99 215.14 180.55 201.17 178.28 198.81 166.08 210.5"/></g></g></g></svg>