<?xml version="1.0" encoding="UTF-8"?>
<svg width="235px" height="235px" viewBox="0 0 235 235" version="1.1" xmlns="http://www.w3.org/2000/svg" xmlns:xlink="http://www.w3.org/1999/xlink">
    <!-- Generator: sketchtool 55.2 (78181) - https://sketchapp.com -->
    <title>81F360AC-57F0-46BA-ACA1-5998BE94AAF3</title>
    <desc>Created with sketchtool.</desc>
    <defs>
        <circle id="path-1" cx="117.5" cy="117.5" r="117.5"></circle>
        <linearGradient x1="14.6374046%" y1="74.1996827%" x2="85.3530534%" y2="25.8003173%" id="linearGradient-3">
            <stop stop-color="#AEAFAF" offset="0%"></stop>
            <stop stop-color="#D1D3D4" offset="100%"></stop>
        </linearGradient>
        <linearGradient x1="14.6374046%" y1="84.8475431%" x2="85.3530534%" y2="15.1524569%" id="linearGradient-4">
            <stop stop-color="#AEAFAF" offset="0%"></stop>
            <stop stop-color="#D1D3D4" offset="100%"></stop>
        </linearGradient>
        <linearGradient x1="14.6374046%" y1="84.8475431%" x2="85.3530534%" y2="15.1524569%" id="linearGradient-5">
            <stop stop-color="#F1F2F2" offset="0%"></stop>
            <stop stop-color="#D1D3D4" offset="100%"></stop>
        </linearGradient>
        <linearGradient x1="14.6374046%" y1="84.8475431%" x2="85.3530534%" y2="15.1524569%" id="linearGradient-6">
            <stop stop-color="#4E4F4F" offset="0%"></stop>
            <stop stop-color="#D1D3D4" offset="100%"></stop>
        </linearGradient>
        <linearGradient x1="14.6374046%" y1="84.8475431%" x2="85.3530534%" y2="15.1524569%" id="linearGradient-7">
            <stop stop-color="#4E4F4F" offset="0%"></stop>
            <stop stop-color="#D1D3D4" offset="100%"></stop>
        </linearGradient>
        <linearGradient x1="14.6374046%" y1="84.8475431%" x2="85.3530534%" y2="15.1524569%" id="linearGradient-8">
            <stop stop-color="#AEAFAF" offset="0%"></stop>
            <stop stop-color="#D1D3D4" offset="100%"></stop>
        </linearGradient>
        <linearGradient x1="14.6374046%" y1="84.8475431%" x2="85.3530534%" y2="15.1524569%" id="linearGradient-9">
            <stop stop-color="#AEAFAF" offset="0%"></stop>
            <stop stop-color="#D1D3D4" offset="100%"></stop>
        </linearGradient>
        <linearGradient x1="14.6374046%" y1="85.2626018%" x2="85.3530534%" y2="14.7373982%" id="linearGradient-10">
            <stop stop-color="#AEAFAF" offset="0%"></stop>
            <stop stop-color="#D1D3D4" offset="100%"></stop>
        </linearGradient>
    </defs>
    <g id="Hi-Fi" stroke="none" stroke-width="1" fill="none" fill-rule="evenodd">
        <g id="Empty-state-overview" transform="translate(-933.000000, -532.000000)">
            <g id="Group-34" transform="translate(933.000000, 532.000000)">
                <mask id="mask-2" fill="white">
                    <use xlink:href="#path-1"></use>
                </mask>
                <use id="Mask" fill="#F5F7FA" xlink:href="#path-1"></use>
                <g mask="url(#mask-2)">
                    <g transform="translate(7.000000, 54.000000)">
                        <g id="Group-5-Copy" stroke="none" stroke-width="1" fill="none" fill-rule="evenodd" transform="translate(0.000000, 17.683408)">
                            <g id="Group-5">
                                <path d="M143.172965,0.181215077 L145.138291,2.82567452 C146.073117,4.06202984 147.335217,5.10643989 148.82927,5.88002518 L152.024922,7.50636774 C152.152589,7.57132713 152.230369,7.68646086 152.230369,7.81048057 C152.230369,7.93450029 152.152589,8.04963402 152.024922,8.11459341 L148.82927,9.74093597 C147.335217,10.5145213 146.073117,11.5589313 145.138291,12.7952866 L143.172965,15.4397461 C143.0905,15.5450892 142.949153,15.6086829 142.797476,15.6086829 C142.645799,15.6086829 142.504452,15.5450892 142.421987,15.4397461 L140.456661,12.7952866 C139.521834,11.5589313 138.259735,10.5145213 136.765682,9.74093597 L133.57003,8.11459341 C133.442363,8.04963402 133.364583,7.93450029 133.364583,7.81048057 C133.364583,7.68646086 133.442363,7.57132713 133.57003,7.50636774 L136.765682,5.88002518 C138.259735,5.10643989 139.521834,4.06202984 140.456661,2.82567452 L142.421987,0.181215077 C142.498545,0.0692314551 142.641996,6.30606678e-14 142.797476,6.30606678e-14 C142.952955,6.30606678e-14 143.096407,0.0692314551 143.172965,0.181215077 L143.172965,0.181215077 Z" id="Path-Copy-8" fill="url(#linearGradient-3)" fill-rule="nonzero"></path>
                                <path d="M19.4834796,27.1097716 L21.4641031,30.2605001 C22.4009427,31.7491267 23.6671337,33.0062325 25.1665186,33.9363501 L28.3400177,35.9027622 C28.467603,35.9825436 28.5450053,36.1217636 28.5450053,36.2714645 C28.5450053,36.4211653 28.467603,36.5603854 28.3400177,36.6401667 L25.1665186,38.6065789 C23.6671337,39.5366964 22.4009427,40.7938022 21.4641031,42.2824288 L19.4834796,45.4331574 C19.4031217,45.5598273 19.2628954,45.6366742 19.1121127,45.6366742 C18.96133,45.6366742 18.8211038,45.5598273 18.7407458,45.4331574 L16.7601223,42.2824288 C15.8232827,40.7938022 14.5570918,39.5366964 13.0577068,38.6065789 L9.88420776,36.6401667 C9.75662238,36.5603854 9.67922009,36.4211653 9.67922009,36.2714645 C9.67922009,36.1217636 9.75662238,35.9825436 9.88420776,35.9027622 L13.0577068,33.9363501 C14.5570918,33.0062325 15.8232827,31.7491267 16.7601223,30.2605001 L18.7407458,27.1097716 C18.8211038,26.9831016 18.96133,26.9062547 19.1121127,26.9062547 C19.2628954,26.9062547 19.4031217,26.9831016 19.4834796,27.1097716 Z" id="Path-Copy-14" fill="url(#linearGradient-4)" fill-rule="nonzero"></path>
                                <ellipse id="Oval" fill="#D8D8D8" cx="6.53492254" cy="86.2192498" rx="3.14429754" ry="3.12173658"></ellipse>
                                <ellipse id="Oval-Copy-10" fill="#D8D8D8" cx="43.8317975" cy="23.3562601" rx="3.14429754" ry="3.12173658"></ellipse>
                                <ellipse id="Oval-Copy-11" fill="#D8D8D8" cx="176.32699" cy="33.1497279" rx="3.14429754" ry="3.12173658"></ellipse>
                                <g id="Group" transform="translate(12.823518, 26.906255)" fill-rule="nonzero">
                                    <path d="M180.352179,156.938016 C149.122761,202.212958 87.4196227,213.392763 42.5176032,181.911846 C-2.3844164,150.430929 -13.490309,88.2045335 17.7088812,42.9083986 C48.9080713,-2.38773639 110.603733,-13.6094329 155.526756,17.8409898 C177.118924,32.957577 191.867439,56.1105792 196.52383,82.2003713 C201.180221,108.290163 195.362542,135.1767 180.352179,156.938016 L180.352179,156.938016 Z" id="Path-Copy-12" fill="#DCDEDF" opacity="0.297236793" style="mix-blend-mode: multiply;"></path>
                                    <path d="M165.180553,146.448896 C190.208784,110.185522 180.888445,60.6444392 144.362993,35.7957912 C107.837541,10.9471432 57.9384224,20.2006072 32.9101918,56.4639815 C7.88196122,92.7273559 17.2023005,142.268439 53.7277523,167.117087 C90.2532041,191.965735 140.152323,182.712271 165.180553,146.448896 Z" id="Oval-Copy-6" fill="url(#linearGradient-5)"></path>
                                    <path d="M157.214877,73.348234 C157.219895,80.2936874 153.009683,86.5580193 146.547987,89.2193848 C140.086292,91.8807504 132.646065,90.4148617 127.697617,85.505447 C122.74917,80.5960322 121.267345,73.2102437 123.943303,66.7930023 C126.619261,60.375761 132.92584,56.1912585 139.92149,56.1912585 C149.467515,56.1912585 157.20802,63.8707046 157.214877,73.348234 Z" id="Path-Copy-13" fill="url(#linearGradient-6)" opacity="0.298035714"></path>
                                    <path d="M113.183457,57.7599053 C116.660879,55.1799453 117.373301,50.2896938 114.774695,46.8372228 C112.17609,43.3847518 107.250496,42.6774419 103.773074,45.2574019 C100.295652,47.8373619 99.5832299,52.7276134 102.181835,56.1800844 C104.780441,59.6325553 109.706035,60.3398652 113.183457,57.7599053 Z" id="Oval-Copy-7" fill="url(#linearGradient-7)" opacity="0.298035714"></path>
                                </g>
                                <path d="M202.31934,58.7908202 L205.295812,63.515083 C206.704084,65.7553742 208.608581,67.6469013 210.864234,69.0455824 L215.60665,71.9876383 C215.797784,72.1100467 215.913261,72.3204698 215.913261,72.546346 C215.913261,72.7722222 215.797784,72.9826453 215.60665,73.1050538 L210.864234,76.0471097 C208.614859,77.4296284 206.710866,79.3013084 205.295812,81.521031 L202.31934,86.2452939 C202.199605,86.4354285 201.989721,86.5509194 201.763922,86.5509194 C201.538123,86.5509194 201.32824,86.4354285 201.208504,86.2452939 L198.232033,81.521031 C196.823761,79.2807399 194.919263,77.3892127 192.66361,75.9905317 L187.921194,73.0484758 C187.730061,72.9260673 187.614583,72.7156442 187.614583,72.489768 C187.614583,72.2638918 187.730061,72.0534687 187.921194,71.9310603 L192.66361,68.9890044 C194.919263,67.5903233 196.823761,65.6987962 198.232033,63.458505 L201.208504,58.7342422 C201.337777,58.5497777 201.553749,58.4446361 201.779742,58.4561465 C202.005735,58.467657 202.209744,58.5941895 202.31934,58.7908202 L202.31934,58.7908202 Z" id="Path-Copy-10" fill="url(#linearGradient-8)" fill-rule="nonzero"></path>
                                <path d="M11.5180029,141.894483 L13.7050672,145.564434 C14.8090883,147.325493 16.3055705,148.811372 18.0791957,149.907571 L21.7753342,152.187718 C21.9219438,152.284279 22.0100828,152.447347 22.0100828,152.622032 C22.0100828,152.796717 21.9219438,152.959785 21.7753342,153.056346 L18.0791957,155.227914 C16.3055705,156.324113 14.8090883,157.809993 13.7050672,159.571052 L11.5180029,163.241003 C11.4286247,163.397274 11.2615843,163.493821 11.0805901,163.493821 C10.8995958,163.493821 10.7325555,163.397274 10.6431772,163.241003 L8.32488911,159.571052 C7.22272008,157.808533 5.72585557,156.322274 3.95076061,155.227914 L0.254622029,153.056346 C0.0972357078,152.967601 0,152.801744 0,152.622032 C0,152.44232 0.0972357078,152.276463 0.254622029,152.187718 L3.95076061,149.907571 C5.72585557,148.813211 7.22272008,147.326952 8.32488911,145.564434 L10.6431772,141.894483 C10.7325555,141.738211 10.8995958,141.641665 11.0805901,141.641665 C11.2615843,141.641665 11.4286247,141.738211 11.5180029,141.894483 Z" id="Path-Copy-11" fill="url(#linearGradient-9)" fill-rule="nonzero"></path>
                            </g>
                        </g>
                        <path d="M60.2777778,19.0669656 L75.3472222,89.5851448" id="Line-3-Copy-2" stroke="#979797" stroke-width="1" fill="none" stroke-linecap="square"></path>
                        <path d="M74.7362655,93.8664538 C78.4806025,93.2889418 81.452181,91.9299153 81.3734718,90.8309832 C81.2947627,89.7320512 78.1955715,89.3093567 74.4512345,89.8868688 C70.7068975,90.4643809 67.735319,91.8234074 67.8140282,92.9223394 C67.8927373,94.0212715 70.9919285,94.4439659 74.7362655,93.8664538 Z" id="Oval-Copy" stroke="none" fill="#9B9B9B" fill-rule="evenodd"></path>
                        <path d="M60.0212766,16.5962621 C70.3792951,20.2180659 78.2056579,18.3574732 83.500365,11.0144839 C88.7950721,3.67149464 95.3673594,0 103.217227,0 L108.5,31.0131187 C92.8472744,32.6202897 84.7674872,36.1070577 84.2606383,41.4734228 C83.7537894,46.8397879 78.0717855,49.0954448 67.2146266,48.2403934 L60.0212766,16.5962621 Z" id="Path-8-Copy-2" stroke="none" fill="url(#linearGradient-10)" fill-rule="nonzero"></path>
                    </g>
                </g>
            </g>
        </g>
    </g>
</svg>